Clean Scene Releases and no fakes    http://bitxtre.me/


-------------------------------------------------------------------------------------
                                   nfo





General
Complete name : D:\Jack Goes Boating 2010 DVDRip 480p Xvid AC3-THC\Jack Goes Boating 2010 DVDRip 480p Xvid AC3-THC.avi
Format : AVI
Format/Info : Audio Video Interleave
Format profile : OpenDML
File size : 1.96 GiB
Duration : 1h 30mn
Overall bit rate : 3 092 Kbps
Writing application : AVI-Mux GUI 1.17.8.3, Feb 16 201019:42:50

Video
ID : 0
Format : MPEG-4 Visual
Format profile : Advanced Simple@L5
Format settings, BVOP : Yes
Format settings, QPel : Yes
Format settings, GMC : No warppoints
Format settings, Matrix : Custom
Codec ID : XVID
Codec ID/Hint : XviD
Duration : 1h 30mn
Bit rate : 2 638 Kbps
Width : 720 pixels
Height : 384 pixels
Display aspect ratio : 1.875
Frame rate : 23.976 fps
Color space : YUV
Chroma subsampling : 4:2:0
Bit depth : 8 bits
Scan type : Progressive
Compression mode : Lossy
Bits/(Pixel*Frame) : 0.398
Stream size : 1.67 GiB (85%)
Writing library : XviD 57

Audio
ID : 1
Format : AC-3
Format/Info : Audio Coding 3
Mode extension : CM (complete main)
Codec ID : 2000
Duration : 1h 30mn
Bit rate mode : Constant
Bit rate : 448 Kbps
Channel(s) : 6 channels
Channel positions : Front: L C R, Side: L R, LFE
Sampling rate : 48.0 KHz
Bit depth : 16 bits
Compression mode : Lossy
Stream size : 291 MiB (14%)
Alignment : Aligned on interleaves
Interleave, duration : 64 ms (1.53 video frames)
Interleave, preload duration : 192 ms
Title : VTS_01_1 T80 5.1ch 448kbps english

Actors: Phillip Seymour Hoffman, Amy Ryan, John Ortiz, Daphne Rubin-Vega
Directors: Phillip Seymour Hoffman
Language: English (Dolby Digital 5.1)
Subtitles: Spanish
Rated: R (Restricted)
Studio: Overture Films/Anchor Bay Entertainment
DVD Release Date: January 18, 2011
Run Time: 91 minutes

Sample Included: Yes
Encoder: Freebee269


 
http://www.imdb.com/title/tt1278379/
 
http://www.amazon.com/Jack-Boating-Phillip-Seymour-Hoffman/dp/B002LVVCJY/ref=sr_1_1?ie=UTF8&s=dvd&qid=1295417979&sr=1-1


Jack (Academy Award winner Philip Seymour Hoffman, making his directorial debut) and Connie (Amy Ryan) are two single people who on their own might continue to recede into the anonymous background of New York City, but in each other begin to find the courage and desire to pursue a budding relationship. As Jack and Connie cautiously circle commitment, the couple that introduced them, Clyde (John Ortiz) and Lucy (Daphne Rubin-Vega), confront their own unresolved issues, and each couple comes face to face with the inevitable path of their relationship. Based on the acclaimed Off-Broadway play of the same name, this unconventional romantic comedy is a tale of love, betrayal, friendship and grace. 